<svg width="149" height="29" viewBox="0 0 149 29" fill="none" xmlns="http://www.w3.org/2000/svg">
<path d="M18.019 10.0695C17.8381 9.44039 17.5839 8.88457 17.2564 8.40199C16.9289 7.9108 16.5282 7.49717 16.0543 7.16109C15.5889 6.81639 15.0546 6.55356 14.4514 6.37259C13.8568 6.19163 13.1976 6.10114 12.4737 6.10114C11.1208 6.10114 9.93158 6.43722 8.90611 7.10938C7.88925 7.78154 7.09645 8.75962 6.5277 10.0436C5.95895 11.319 5.67458 12.8787 5.67458 14.7229C5.67458 16.567 5.95464 18.1354 6.51477 19.428C7.07491 20.7206 7.86771 21.7073 8.89318 22.3881C9.91866 23.0602 11.1294 23.3963 12.5254 23.3963C13.7922 23.3963 14.8737 23.1723 15.7699 22.7242C16.6747 22.2674 17.3641 21.6254 17.8381 20.7982C18.3206 19.9709 18.5619 18.9928 18.5619 17.8639L19.6994 18.032H12.8744V13.818H23.9521V17.153C23.9521 19.4797 23.4609 21.4789 22.4786 23.1507C21.4962 24.8139 20.1432 26.0979 18.4197 27.0027C16.6963 27.8989 14.7229 28.347 12.4996 28.347C10.0178 28.347 7.83755 27.7998 5.95895 26.7054C4.08035 25.6024 2.61539 24.0383 1.56406 22.0132C0.521355 19.9795 1.199e-06 17.5666 1.199e-06 14.7746C1.199e-06 12.6288 0.310229 10.7158 0.930683 9.03537C1.55976 7.34636 2.43873 5.91587 3.56761 4.7439C4.6965 3.57193 6.01065 2.68002 7.51009 2.06819C9.00952 1.45635 10.6339 1.15043 12.3832 1.15043C13.8827 1.15043 15.2787 1.37018 16.5713 1.80966C17.8639 2.24054 19.01 2.85237 20.0097 3.64518C21.0179 4.43798 21.8409 5.38159 22.4786 6.476C23.1162 7.56179 23.5256 8.75962 23.7065 10.0695H18.019ZM35.6462 28.3729C33.6039 28.3729 31.846 27.9592 30.3724 27.132C28.9074 26.2961 27.7785 25.1155 26.9857 23.5902C26.1929 22.0563 25.7965 20.2423 25.7965 18.1483C25.7965 16.106 26.1929 14.3135 26.9857 12.771C27.7785 11.2285 28.8945 10.0264 30.3336 9.16464C31.7813 8.30289 33.479 7.87202 35.4265 7.87202C36.7364 7.87202 37.9557 8.08315 39.0846 8.5054C40.2221 8.91904 41.2131 9.5438 42.0576 10.3797C42.9107 11.2156 43.5743 12.2669 44.0482 13.5337C44.5222 14.7918 44.7592 16.2654 44.7592 17.9544V19.4668H27.994V16.0543H39.5758C39.5758 15.2615 39.4034 14.5591 39.0587 13.9473C38.714 13.3355 38.2358 12.8572 37.6239 12.5125C37.0207 12.1592 36.3184 11.9825 35.517 11.9825C34.6811 11.9825 33.94 12.1764 33.2937 12.5642C32.656 12.9434 32.1562 13.4561 31.7943 14.1024C31.4323 14.7401 31.2471 15.451 31.2384 16.2352V19.4797C31.2384 20.4621 31.4194 21.3109 31.7813 22.0261C32.1519 22.7414 32.6732 23.2929 33.3454 23.6807C34.0176 24.0685 34.8147 24.2624 35.7367 24.2624C36.3486 24.2624 36.9087 24.1762 37.4171 24.0038C37.9256 23.8315 38.3607 23.573 38.7227 23.2283C39.0846 22.8836 39.3604 22.4613 39.5499 21.9615L44.6428 22.2976C44.3843 23.5213 43.8543 24.5898 43.0529 25.5033C42.2601 26.4081 41.2346 27.1147 39.9765 27.6232C38.727 28.123 37.2836 28.3729 35.6462 28.3729ZM52.4042 16.5067V27.9851H46.8976V8.13055H52.1457V11.6335H52.3783C52.8178 10.4788 53.5546 9.56535 54.5887 8.89319C55.6228 8.21241 56.8766 7.87202 58.3502 7.87202C59.729 7.87202 60.9311 8.17363 61.9566 8.77685C62.9821 9.38007 63.7792 10.2418 64.3479 11.3621C64.9167 12.4737 65.201 13.8008 65.201 15.3433V27.9851H59.6945V16.3257C59.7031 15.1107 59.3929 14.1627 58.7638 13.482C58.1348 12.7926 57.2687 12.4479 56.1657 12.4479C55.4246 12.4479 54.7697 12.6073 54.2009 12.9261C53.6408 13.245 53.2013 13.7103 52.8824 14.3222C52.5722 14.9254 52.4128 15.6536 52.4042 16.5067ZM78.6467 8.13055V12.2669H66.69V8.13055H78.6467ZM69.4045 3.37373H74.911V21.884C74.911 22.3924 74.9886 22.7888 75.1437 23.0732C75.2988 23.3489 75.5142 23.5428 75.79 23.6548C76.0744 23.7669 76.4018 23.8229 76.7724 23.8229C77.0309 23.8229 77.2894 23.8013 77.5479 23.7582C77.8065 23.7065 78.0047 23.6678 78.1425 23.6419L79.0086 27.7395C78.7328 27.8257 78.345 27.9248 77.8452 28.0368C77.3454 28.1574 76.7379 28.2307 76.0226 28.2565C74.6956 28.3082 73.5322 28.1316 72.5326 27.7266C71.5416 27.3216 70.7703 26.6925 70.2188 25.8394C69.6673 24.9862 69.3958 23.9091 69.4045 22.6078V3.37373ZM80.7787 27.9851V8.13055H86.2852V27.9851H80.7787ZM83.5449 5.57117C82.7262 5.57117 82.0239 5.29972 81.4379 4.75682C80.8605 4.20531 80.5718 3.54608 80.5718 2.77912C80.5718 2.02079 80.8605 1.37018 81.4379 0.827279C82.0239 0.275762 82.7262 4.38203e-06 83.5449 4.38203e-06C84.3635 4.38203e-06 85.0615 0.275762 85.6389 0.827279C86.2249 1.37018 86.5179 2.02079 86.5179 2.77912C86.5179 3.54608 86.2249 4.20531 85.6389 4.75682C85.0615 5.29972 84.3635 5.57117 83.5449 5.57117ZM101.973 19.5314V8.13055H107.48V27.9851H102.193V24.3787H101.986C101.538 25.5421 100.793 26.477 99.7502 27.1837C98.7161 27.8903 97.4536 28.2436 95.9628 28.2436C94.6357 28.2436 93.4681 27.942 92.4598 27.3388C91.4516 26.7356 90.6631 25.8781 90.0944 24.7665C89.5342 23.6548 89.2499 22.3234 89.2412 20.7723V8.13055H94.7478V19.7899C94.7564 20.9619 95.0709 21.8883 95.6914 22.569C96.3118 23.2498 97.1434 23.5902 98.1861 23.5902C98.8497 23.5902 99.4701 23.4394 100.047 23.1378C100.625 22.8276 101.09 22.3708 101.444 21.7676C101.805 21.1644 101.982 20.419 101.973 19.5314ZM110.43 27.9851V8.13055H115.678V11.6335H115.91C116.324 10.4702 117.013 9.55242 117.978 8.88026C118.944 8.2081 120.098 7.87202 121.443 7.87202C122.804 7.87202 123.963 8.21241 124.92 8.89319C125.876 9.56535 126.514 10.4788 126.833 11.6335H127.04C127.445 10.496 128.177 9.58689 129.237 8.90611C130.306 8.21672 131.568 7.87202 133.024 7.87202C134.877 7.87202 136.381 8.46232 137.536 9.6429C138.699 10.8149 139.281 12.478 139.281 14.6324V27.9851H133.787V15.7182C133.787 14.6152 133.494 13.7879 132.908 13.2364C132.322 12.6849 131.59 12.4091 130.711 12.4091C129.711 12.4091 128.931 12.7279 128.371 13.3656C127.811 13.9947 127.531 14.8263 127.531 15.8604V27.9851H122.192V15.6019C122.192 14.6281 121.912 13.8525 121.352 13.2751C120.801 12.6978 120.072 12.4091 119.168 12.4091C118.556 12.4091 118.004 12.5642 117.513 12.8744C117.031 13.176 116.647 13.6026 116.363 14.1541C116.078 14.697 115.936 15.3347 115.936 16.0672V27.9851H110.43ZM145.394 28.3212C144.541 28.3212 143.808 28.0196 143.197 27.4163C142.593 26.8045 142.292 26.072 142.292 25.2189C142.292 24.3744 142.593 23.6505 143.197 23.0473C143.808 22.4441 144.541 22.1425 145.394 22.1425C146.221 22.1425 146.945 22.4441 147.566 23.0473C148.186 23.6505 148.496 24.3744 148.496 25.2189C148.496 25.7876 148.35 26.309 148.057 26.783C147.772 27.2483 147.398 27.6232 146.932 27.9075C146.467 28.1833 145.954 28.3212 145.394 28.3212Z" fill="white"/>
</svg>
