<svg width="48" height="48" viewBox="0 0 48 48" fill="none" xmlns="http://www.w3.org/2000/svg">
<rect x="1" y="1" width="46" height="46" rx="23" stroke="#E9204F" stroke-width="2"/>
<path d="M20.9152 30.0469C20.9152 30.125 20.8371 30.1641 20.7199 30.1641C20.6027 30.2031 20.5246 30.125 20.5246 30.0469C20.5246 29.9688 20.6027 29.8906 20.7199 29.8906C20.8371 29.8906 20.9152 29.9688 20.9152 30.0469ZM19.7043 29.8516C19.7434 29.7734 19.8606 29.7344 19.9777 29.7734C20.0949 29.8125 20.134 29.8906 20.134 29.9688C20.0949 30.0469 19.9777 30.0859 19.8996 30.0469C19.7824 30.0469 19.7043 29.9297 19.7043 29.8516ZM21.4621 29.8125C21.5402 29.7734 21.6574 29.8516 21.6574 29.9297C21.6965 30.0078 21.6184 30.0469 21.5012 30.0859C21.384 30.125 21.2668 30.0859 21.2668 30.0078C21.2668 29.8906 21.3449 29.8125 21.4621 29.8125ZM24.0012 14.8125C29.4309 14.8125 33.8449 18.9531 33.8449 24.3438C33.8449 28.6797 31.1887 32.3906 27.2824 33.6797C26.7746 33.7969 26.5793 33.4844 26.5793 33.2109C26.5793 32.8984 26.6184 31.2578 26.6184 29.9688C26.6184 29.0312 26.3059 28.4453 25.9543 28.1328C28.1418 27.8984 30.4465 27.5859 30.4465 23.8359C30.4465 22.7422 30.0559 22.2344 29.4309 21.5312C29.509 21.2578 29.8606 20.2422 29.3137 18.875C28.4934 18.6016 26.6184 19.9297 26.6184 19.9297C25.8371 19.6953 25.0168 19.6172 24.1574 19.6172C23.3371 19.6172 22.5168 19.6953 21.7356 19.9297C21.7356 19.9297 19.8215 18.6406 19.0402 18.875C18.4934 20.2422 18.8059 21.2578 18.9231 21.5312C18.2981 22.2344 17.9856 22.7422 17.9856 23.8359C17.9856 27.5859 20.2121 27.8984 22.3996 28.1328C22.0871 28.4062 21.8527 28.8359 21.7746 29.4609C21.1887 29.7344 19.7824 30.1641 18.9231 28.6406C18.3762 27.7031 17.3996 27.625 17.3996 27.625C16.4621 27.625 17.3606 28.25 17.3606 28.25C17.9856 28.5234 18.4152 29.6562 18.4152 29.6562C19.0012 31.4141 21.7356 30.8281 21.7356 30.8281C21.7356 31.6484 21.7356 32.9766 21.7356 33.25C21.7356 33.4844 21.5793 33.7969 21.0715 33.7188C17.1652 32.3906 14.4699 28.6797 14.4699 24.3438C14.4699 18.9531 18.6106 14.8125 24.0012 14.8125ZM18.259 28.2891C18.2981 28.25 18.3762 28.2891 18.4543 28.3281C18.5324 28.4062 18.5324 28.5234 18.4934 28.5625C18.4152 28.6016 18.3371 28.5625 18.259 28.5234C18.2199 28.4453 18.1809 28.3281 18.259 28.2891ZM17.8293 27.9766C17.8684 27.9375 17.9074 27.9375 17.9856 27.9766C18.0637 28.0156 18.1027 28.0547 18.1027 28.0938C18.0637 28.1719 17.9856 28.1719 17.9074 28.1328C17.8293 28.0938 17.7902 28.0547 17.8293 27.9766ZM19.0793 29.3828C19.1574 29.3047 19.2746 29.3438 19.3527 29.4219C19.4309 29.5 19.4309 29.6172 19.3918 29.6562C19.3527 29.7344 19.2356 29.6953 19.1574 29.6172C19.0402 29.5391 19.0402 29.4219 19.0793 29.3828ZM18.6496 28.7969C18.7277 28.7578 18.8059 28.7969 18.884 28.875C18.9231 28.9531 18.9231 29.0703 18.884 29.1094C18.8059 29.1484 18.7277 29.1094 18.6496 29.0312C18.5715 28.9531 18.5715 28.8359 18.6496 28.7969Z" fill="white"/>
</svg>
