<svg width="48" height="48" viewBox="0 0 48 48" fill="none" xmlns="http://www.w3.org/2000/svg">
<path d="M42 47.3906H3.60938C2.60938 47.3906 1.75781 47.0391 1.05469 46.3359C0.351562 45.6328 0 44.7812 0 43.7812V5.39062C0 4.39062 0.351562 3.53906 1.05469 2.83594C1.75781 2.13281 2.60938 1.78125 3.60938 1.78125H42C43 1.78125 43.8516 2.13281 44.5547 2.83594C45.2578 3.53906 45.6094 4.39062 45.6094 5.39062V43.7812C45.6094 44.7812 45.2578 45.6328 44.5547 46.3359C43.8516 47.0391 43 47.3906 42 47.3906ZM3.60938 4.21875C3.26562 4.21875 2.97656 4.33594 2.74219 4.57031C2.50781 4.80469 2.39062 5.07812 2.39062 5.39062V43.7812C2.39062 44.125 2.50781 44.4141 2.74219 44.6484C2.97656 44.8828 3.26562 45 3.60938 45H42C42.3438 45 42.6328 44.8828 42.8672 44.6484C43.1016 44.4141 43.2188 44.125 43.2188 43.7812V5.39062C43.2188 5.07812 43.1016 4.80469 42.8672 4.57031C42.6328 4.33594 42.3438 4.21875 42 4.21875H3.60938ZM15.6094 40.2188H10.7812C10.4688 40.2188 10.1953 40.1016 9.96094 39.8672C9.72656 39.6328 9.60938 39.3438 9.60938 39V17.3906C9.60938 17.0781 9.72656 16.8047 9.96094 16.5703C10.1953 16.3359 10.4688 16.2188 10.7812 16.2188H15.6094C15.9219 16.2188 16.1953 16.3359 16.4297 16.5703C16.6641 16.8047 16.7812 17.0781 16.7812 17.3906V39C16.7812 39.3438 16.6641 39.6328 16.4297 39.8672C16.1953 40.1016 15.9219 40.2188 15.6094 40.2188ZM12 37.7812H14.3906V18.6094H12V37.7812ZM25.2188 40.2188H20.3906C20.0781 40.2188 19.8047 40.1016 19.5703 39.8672C19.3359 39.6328 19.2188 39.3438 19.2188 39V10.2188C19.2188 9.875 19.3359 9.58594 19.5703 9.35156C19.8047 9.11719 20.0781 9 20.3906 9H25.2188C25.5312 9 25.8047 9.11719 26.0391 9.35156C26.2734 9.58594 26.3906 9.875 26.3906 10.2188V39C26.3906 39.3438 26.2734 39.6328 26.0391 39.8672C25.8047 40.1016 25.5312 40.2188 25.2188 40.2188ZM21.6094 37.7812H24V11.3906H21.6094V37.7812ZM34.7812 40.2188H30C29.6562 40.2188 29.3672 40.1016 29.1328 39.8672C28.8984 39.6328 28.7812 39.3438 28.7812 39V27C28.7812 26.6562 28.8984 26.3672 29.1328 26.1328C29.3672 25.8984 29.6562 25.7812 30 25.7812H34.7812C35.125 25.7812 35.4141 25.8984 35.6484 26.1328C35.8828 26.3672 36 26.6562 36 27V39C36 39.3438 35.8828 39.6328 35.6484 39.8672C35.4141 40.1016 35.125 40.2188 34.7812 40.2188ZM31.2188 37.7812H33.6094V28.2188H31.2188V37.7812Z" fill="white"/>
</svg>
