<svg width="48" height="48" viewBox="0 0 48 48" fill="none" xmlns="http://www.w3.org/2000/svg">
<path d="M20.3906 47.3906C19.0469 47.3906 17.7188 47.2656 16.4062 47.0156C15.0938 46.7344 13.8203 46.3438 12.5859 45.8438C11.3516 45.3438 10.1875 44.7188 9.09375 43.9688C7.96875 43.25 6.92188 42.4062 5.95312 41.4375C5.01562 40.4688 4.17188 39.4219 3.42188 38.2969C2.67188 37.2031 2.04688 36.0469 1.54688 34.8281C1.04688 33.6094 0.65625 32.3438 0.375 31.0312C0.125 29.7188 0 28.375 0 27C0 25.625 0.125 24.2812 0.375 22.9688C0.65625 21.6562 1.04688 20.3906 1.54688 19.1719C2.04688 17.9531 2.67188 16.7969 3.42188 15.7031C4.17188 14.5781 5.01562 13.5312 5.95312 12.5625C6.92188 11.5938 7.96875 10.75 9.09375 10.0312C10.1875 9.28125 11.3516 8.65625 12.5859 8.15625C13.8203 7.65625 15.0938 7.26562 16.4062 6.98438C17.7188 6.73438 19.0469 6.60938 20.3906 6.60938C20.7344 6.60938 21.0234 6.72656 21.2578 6.96094C21.4922 7.19531 21.6094 7.46875 21.6094 7.78125V25.7812H39.6094C39.9219 25.7812 40.1953 25.8984 40.4297 26.1328C40.6641 26.3672 40.7812 26.6562 40.7812 27C40.7812 28.375 40.6562 29.7188 40.4062 31.0312C40.1562 32.3438 39.7734 33.6094 39.2578 34.8281C38.7422 36.0469 38.125 37.2031 37.4062 38.2969C36.6562 39.4219 35.7969 40.4688 34.8281 41.4375C33.8594 42.4062 32.8281 43.25 31.7344 43.9688C30.6094 44.7188 29.4375 45.3438 28.2188 45.8438C27 46.3438 25.7344 46.7344 24.4219 47.0156C23.1094 47.2656 21.7656 47.3906 20.3906 47.3906ZM19.2188 9.04688C16.875 9.20312 14.6719 9.78125 12.6094 10.7812C10.5781 11.7812 8.80469 13.0859 7.28906 14.6953C5.77344 16.3047 4.57812 18.1562 3.70312 20.25C2.82812 22.375 2.39062 24.625 2.39062 27C2.39062 29.4688 2.85938 31.7969 3.79688 33.9844C4.76562 36.1719 6.0625 38.0859 7.6875 39.7266C9.3125 41.3672 11.2188 42.6562 13.4062 43.5938C15.5938 44.5312 17.9219 45 20.3906 45C22.7656 45 25.0156 44.5625 27.1406 43.6875C29.2344 42.8125 31.0938 41.6172 32.7188 40.1016C34.3438 38.5859 35.6406 36.8125 36.6094 34.7812C37.6094 32.75 38.1875 30.5625 38.3438 28.2188H20.3906C20.0781 28.2188 19.8047 28.1016 19.5703 27.8672C19.3359 27.6328 19.2188 27.3438 19.2188 27V9.04688ZM44.3906 23.3906H25.2188C24.875 23.3906 24.5859 23.2734 24.3516 23.0391C24.1172 22.8047 24 22.5312 24 22.2188V3C24 2.65625 24.1172 2.36719 24.3516 2.13281C24.5859 1.89844 24.875 1.78125 25.2188 1.78125C26.5625 1.78125 27.8906 1.92188 29.2031 2.20312C30.5156 2.45312 31.7812 2.83594 33 3.35156C34.2188 3.86719 35.3906 4.48438 36.5156 5.20312C37.6406 5.95312 38.6719 6.8125 39.6094 7.78125C40.5781 8.75 41.4375 9.78125 42.1875 10.875C42.9375 12 43.5625 13.1719 44.0625 14.3906C44.5625 15.6094 44.9375 16.875 45.1875 18.1875C45.4688 19.5 45.6094 20.8438 45.6094 22.2188C45.6094 22.5312 45.4922 22.8047 45.2578 23.0391C45.0234 23.2734 44.7344 23.3906 44.3906 23.3906ZM26.3906 21H43.1719C43.0156 18.75 42.4688 16.6406 41.5312 14.6719C40.625 12.7031 39.4219 10.9688 37.9219 9.46875C36.4219 7.96875 34.6875 6.76562 32.7188 5.85938C30.75 4.92188 28.6406 4.375 26.3906 4.21875V21Z" fill="#E9204F"/>
</svg>
