<svg width="48" height="48" viewBox="0 0 48 48" fill="none" xmlns="http://www.w3.org/2000/svg">
<rect x="1" y="1" width="46" height="46" rx="23" stroke="#E9204F" stroke-width="2"/>
<path d="M24.1516 20.0078C26.6125 20.0078 28.6438 22.0391 28.6438 24.5C28.6438 27 26.6125 28.9922 24.1516 28.9922C21.6516 28.9922 19.6594 27 19.6594 24.5C19.6594 22.0391 21.6516 20.0078 24.1516 20.0078ZM24.1516 27.4297C25.7531 27.4297 27.0422 26.1406 27.0422 24.5C27.0422 22.8984 25.7531 21.6094 24.1516 21.6094C22.5109 21.6094 21.2219 22.8984 21.2219 24.5C21.2219 26.1406 22.55 27.4297 24.1516 27.4297ZM29.8547 19.8516C29.8547 20.4375 29.3859 20.9062 28.8 20.9062C28.2141 20.9062 27.7453 20.4375 27.7453 19.8516C27.7453 19.2656 28.2141 18.7969 28.8 18.7969C29.3859 18.7969 29.8547 19.2656 29.8547 19.8516ZM32.8234 20.9062C32.9016 22.3516 32.9016 26.6875 32.8234 28.1328C32.7453 29.5391 32.4328 30.75 31.4172 31.8047C30.4016 32.8203 29.1516 33.1328 27.7453 33.2109C26.3 33.2891 21.9641 33.2891 20.5188 33.2109C19.1125 33.1328 17.9016 32.8203 16.8469 31.8047C15.8313 30.75 15.5188 29.5391 15.4406 28.1328C15.3625 26.6875 15.3625 22.3516 15.4406 20.9062C15.5188 19.5 15.8313 18.25 16.8469 17.2344C17.9016 16.2188 19.1125 15.9062 20.5188 15.8281C21.9641 15.75 26.3 15.75 27.7453 15.8281C29.1516 15.9062 30.4016 16.2188 31.4172 17.2344C32.4328 18.25 32.7453 19.5 32.8234 20.9062ZM30.9484 29.6562C31.4172 28.5234 31.3 25.7891 31.3 24.5C31.3 23.25 31.4172 20.5156 30.9484 19.3438C30.6359 18.6016 30.05 17.9766 29.3078 17.7031C28.1359 17.2344 25.4016 17.3516 24.1516 17.3516C22.8625 17.3516 20.1281 17.2344 18.9953 17.7031C18.2141 18.0156 17.6281 18.6016 17.3156 19.3438C16.8469 20.5156 16.9641 23.25 16.9641 24.5C16.9641 25.7891 16.8469 28.5234 17.3156 29.6562C17.6281 30.4375 18.2141 31.0234 18.9953 31.3359C20.1281 31.8047 22.8625 31.6875 24.1516 31.6875C25.4016 31.6875 28.1359 31.8047 29.3078 31.3359C30.05 31.0234 30.675 30.4375 30.9484 29.6562Z" fill="white"/>
</svg>
