<svg width="48" height="48" viewBox="0 0 48 48" fill="none" xmlns="http://www.w3.org/2000/svg">
<rect x="1" y="1" width="46" height="46" rx="23" stroke="#E9204F" stroke-width="2"/>
<path d="M32.0891 20.4375C32.0891 20.6328 32.0891 20.7891 32.0891 20.9844C32.0891 26.4141 27.9875 32.625 20.4484 32.625C18.1047 32.625 15.9563 31.9609 14.1594 30.7891C14.4719 30.8281 14.7844 30.8672 15.1359 30.8672C17.05 30.8672 18.8078 30.2031 20.2141 29.1094C18.4172 29.0703 16.8938 27.8984 16.3859 26.2578C16.6594 26.2969 16.8938 26.3359 17.1672 26.3359C17.5188 26.3359 17.9094 26.2578 18.2219 26.1797C16.3469 25.7891 14.9406 24.1484 14.9406 22.1562V22.1172C15.4875 22.4297 16.1516 22.5859 16.8156 22.625C15.6828 21.8828 14.9797 20.6328 14.9797 19.2266C14.9797 18.4453 15.175 17.7422 15.5266 17.1562C17.5578 19.6172 20.6047 21.2578 24.0031 21.4531C23.925 21.1406 23.8859 20.8281 23.8859 20.5156C23.8859 18.25 25.7219 16.4141 27.9875 16.4141C29.1594 16.4141 30.2141 16.8828 30.9953 17.7031C31.8938 17.5078 32.7922 17.1562 33.5734 16.6875C33.2609 17.6641 32.6359 18.4453 31.7766 18.9531C32.5969 18.875 33.4172 18.6406 34.1203 18.3281C33.5734 19.1484 32.8703 19.8516 32.0891 20.4375Z" fill="white"/>
</svg>
